<?xml version="1.0" encoding="UTF-8"?>
<svg
    xmlns="http://www.w3.org/2000/svg"
    viewBox="0 0 4000 4000"
    width="100%"
    height="100%"
    preserveAspectRatio="xMidYMid meet">

<g transform="translate(0,4000) scale(1,-1)"
fill="#ffffff" stroke="none">
<path d="M2900 2971 c-90 -29 -174 -101 -218 -186 -23 -44 -27 -64 -30 -171
-3 -79 0 -129 7 -143 7 -11 8 -21 2 -21 -15 0 -21 28 -21 95 0 81 -7 85 -132
85 -162 0 -170 -11 -202 -265 -14 -104 -27 -215 -31 -245 -3 -30 -10 -84 -15
-120 -24 -171 -70 -575 -70 -612 0 -59 29 -104 77 -118 27 -8 255 -10 768 -8
796 3 754 0 790 61 17 29 17 77 1 167 -3 14 -14 95 -26 180 -11 85 -36 263
-55 395 -18 132 -41 294 -50 360 -18 129 -36 173 -80 193 -40 18 -209 16 -225
-3 -22 -26 -27 -17 -32 53 -6 81 -32 135 -96 204 -72 77 -128 101 -242 105
-52 1 -106 -1 -120 -6z m250 -49 c62 -30 129 -97 156 -157 19 -42 23 -69 25
-163 2 -120 -7 -150 -41 -132 -14 7 -18 29 -23 119 -7 129 -25 179 -82 230
-54 47 -100 64 -175 65 -84 1 -148 -23 -195 -76 -56 -62 -68 -99 -70 -215 -2
-113 -12 -140 -47 -122 -19 10 -20 19 -16 137 3 99 8 135 22 162 41 77 115
142 189 166 63 21 200 13 257 -14z m-30 -97 c77 -39 124 -125 110 -199 -4 -26
-6 -27 -19 -13 -12 15 -39 17 -204 17 -167 0 -193 -2 -210 -17 -19 -18 -19
-17 -15 49 3 56 9 73 34 105 68 84 202 110 304 58z m-500 -297 c0 -60 4 -76
22 -95 28 -30 101 -32 138 -4 21 17 25 29 28 95 l4 76 194 0 194 0 0 -64 c0
-55 4 -69 26 -95 22 -27 32 -31 74 -31 42 0 52 4 75 32 24 28 26 38 23 95 l-3
63 102 0 c91 0 105 -2 127 -22 28 -24 28 -25 86 -428 11 -74 38 -259 60 -410
58 -388 59 -392 27 -424 l-26 -26 -756 0 -756 0 -24 25 c-18 17 -25 35 -25 63
0 47 132 1102 145 1159 3 12 15 32 27 43 19 17 35 20 130 20 l108 0 0 -72z
m150 -67 c-6 -12 -15 -21 -20 -21 -5 0 -1 13 8 30 19 32 30 24 12 -9z m484 4
c3 -8 1 -15 -4 -15 -6 0 -10 7 -10 15 0 8 2 15 4 15 2 0 6 -7 10 -15z m106 1
c0 -8 -7 -16 -15 -20 -12 -4 -13 -2 -2 14 14 24 17 25 17 6z"/>
<path d="M3340 2314 c-58 -19 -152 -48 -210 -65 -58 -17 -118 -37 -135 -45
-16 -7 -64 -23 -105 -35 -41 -12 -115 -34 -165 -50 -49 -16 -117 -38 -150 -49
-33 -11 -69 -21 -80 -23 -73 -15 -120 -61 -99 -95 6 -10 69 -37 145 -62 l134
-45 24 -60 c13 -33 34 -84 47 -113 13 -29 24 -54 24 -57 0 -6 -120 -91 -186
-130 -58 -35 -67 -48 -15 -20 31 15 153 95 161 104 3 3 13 12 22 20 16 12 20
10 33 -23 27 -64 57 -59 151 27 50 45 69 55 76 40 2 -5 17 -17 33 -29 17 -11
67 -46 112 -77 45 -31 90 -57 101 -57 33 0 63 45 83 126 34 135 101 379 107
389 3 5 7 19 8 32 4 33 11 42 104 140 80 85 131 153 113 153 -4 0 -20 -17 -35
-38 -36 -50 -169 -194 -175 -188 -2 2 2 17 10 33 17 34 51 170 49 197 -3 46
-44 46 -182 0z m164 7 c3 -5 -7 -55 -23 -112 -48 -175 -98 -356 -142 -524 -24
-88 -47 -166 -52 -172 -5 -7 -19 -13 -31 -13 -17 0 -279 176 -390 263 l-29 22
243 200 c302 249 297 244 287 245 -4 0 -24 -10 -45 -23 -20 -13 -169 -95 -331
-182 -162 -87 -289 -161 -283 -163 7 -2 60 23 120 56 59 33 143 79 187 101 44
23 94 50 110 60 17 11 41 22 54 26 29 9 -21 -37 -174 -160 -55 -44 -106 -86
-113 -92 -7 -7 -22 -19 -34 -27 -18 -13 -21 -28 -25 -148 -3 -73 -3 -131 0
-128 5 5 16 105 17 153 0 15 5 27 12 27 19 0 118 -72 112 -82 -14 -22 -127
-108 -142 -108 -13 0 -33 41 -80 163 l-63 163 -137 44 c-75 25 -137 50 -139
55 -1 6 1 15 5 22 4 6 235 84 512 173 278 89 510 163 515 165 20 7 54 5 59 -4z"/>
<path d="M3669 1721 c-132 -133 -302 -241 -494 -313 -55 -20 -94 -37 -87 -38
51 -1 337 131 413 191 20 16 41 29 47 29 13 0 202 186 202 199 0 15 5 19 -81
-68z"/>
<path d="M3018 1353 c7 -3 16 -2 19 1 4 3 -2 6 -13 5 -11 0 -14 -3 -6 -6z"/>
<path d="M2978 1343 c7 -3 16 -2 19 1 4 3 -2 6 -13 5 -11 0 -14 -3 -6 -6z"/>
<path d="M2915 1330 c-13 -6 -15 -9 -5 -9 8 0 22 4 30 9 18 12 2 12 -25 0z"/>
</g>
</svg>
